<?xml version="1.0" encoding="UTF-8"?>
<!DOCTYPE svg PUBLIC "-//W3C//DTD SVG 1.1//EN" "http://www.w3.org/Graphics/SVG/1.1/DTD/svg11.dtd">
<svg xmlns="http://www.w3.org/2000/svg" version="1.1" width="770px" height="533px" style="shape-rendering:geometricPrecision; text-rendering:geometricPrecision; image-rendering:optimizeQuality; fill-rule:evenodd; clip-rule:evenodd" xmlns:xlink="http://www.w3.org/1999/xlink">
<g><path style="opacity:0.965" fill="#fdc10f" d="M 376.5,-0.5 C 378.167,-0.5 379.833,-0.5 381.5,-0.5C 484.365,2.58609 562.532,47.9194 616,135.5C 658.67,213.946 662.67,294.279 628,376.5C 589.314,455.45 527.148,505.283 441.5,526C 425.502,529.311 409.502,531.478 393.5,532.5C 387.5,532.5 381.5,532.5 375.5,532.5C 281.859,527.277 209.026,485.944 157,408.5C 112.352,333.337 104.019,254.337 132,171.5C 166.727,87.7684 227.561,33.2684 314.5,8C 335.031,3.04224 355.698,0.208911 376.5,-0.5 Z M 364.5,27.5 C 469.551,24.2539 547.384,68.2539 598,159.5C 625.77,216.104 631.104,274.771 614,335.5C 591.048,405.124 546.215,455.291 479.5,486C 386.98,523.245 302.313,510.245 225.5,447C 152.781,379.825 128.281,297.991 152,201.5C 178.535,117.632 233.701,62.4652 317.5,36C 333.114,32.0663 348.78,29.233 364.5,27.5 Z"/></g>
<g><path style="opacity:0.976" fill="#1f3469" d="M 303.5,92.5 C 338.502,92.3333 373.502,92.5 408.5,93C 462.068,95.9947 503.234,119.828 532,164.5C 553.222,204.161 556.222,245.161 541,287.5C 538.174,293.822 534.841,299.822 531,305.5C 521.697,292.692 513.864,279.025 507.5,264.5C 518.218,216.792 503.884,178.626 464.5,150C 446.804,140.157 427.804,134.49 407.5,133C 394.852,132.051 382.185,131.551 369.5,131.5C 330.502,132.33 291.502,132.997 252.5,133.5C 252.5,120.5 252.5,107.5 252.5,94.5C 269.658,93.9383 286.658,93.2717 303.5,92.5 Z"/></g>
<g><path style="opacity:0.971" fill="#1f3469" d="M 343.5,153.5 C 353.245,151.57 360.412,154.904 365,163.5C 368.673,170.572 369.34,177.905 367,185.5C 355.278,206.11 344.778,227.277 335.5,249C 335.439,251.806 336.772,253.473 339.5,254C 344.667,254.167 349.833,254.333 355,254.5C 374.162,253.579 393.329,253.413 412.5,254C 415.011,256.179 417.178,258.679 419,261.5C 424.581,271.664 430.414,281.664 436.5,291.5C 393.837,292.333 351.171,292.833 308.5,293C 305.667,294.5 303.5,296.667 302,299.5C 284.938,334.623 267.605,369.623 250,404.5C 249.097,405.701 247.931,406.535 246.5,407C 232.821,407.833 219.154,407.666 205.5,406.5C 249.02,326.131 291.52,245.131 333,163.5C 334.5,161.167 336,158.833 337.5,156.5C 339.444,155.199 341.444,154.199 343.5,153.5 Z"/></g>
<g><path style="opacity:0.968" fill="#1f3469" d="M 381.5,154.5 C 393.505,154.333 405.505,154.5 417.5,155C 418.931,155.465 420.097,156.299 421,157.5C 468.914,240.331 517.081,322.997 565.5,405.5C 551.846,406.666 538.179,406.833 524.5,406C 523.069,405.535 521.903,404.701 521,403.5C 481.2,330.729 440.2,258.729 398,187.5C 391.962,176.757 386.462,165.757 381.5,154.5 Z"/></g>
<g><path style="opacity:0.956" fill="#fdc10f" d="M 33.5,180.5 C 49.7723,178.456 59.1056,185.456 61.5,201.5C 60.5804,214.92 53.4137,222.253 40,223.5C 22.833,220.499 16.1664,210.499 20,193.5C 22.4424,186.888 26.9424,182.555 33.5,180.5 Z"/></g>
<g><path style="opacity:0.962" fill="#fdc10f" d="M 721.5,180.5 C 741.981,178.814 751.148,188.148 749,208.5C 741.344,223.165 730.177,226.665 715.5,219C 706.133,209.969 704.633,199.802 711,188.5C 713.94,184.963 717.44,182.297 721.5,180.5 Z"/></g>
<g><path style="opacity:0.907" fill="#1f3469" d="M -0.5,237.5 C 26.5,237.5 53.5,237.5 80.5,237.5C 80.5,241.167 80.5,244.833 80.5,248.5C 53.5,248.5 26.5,248.5 -0.5,248.5C -0.5,244.833 -0.5,241.167 -0.5,237.5 Z"/></g>
<g><path style="opacity:0.893" fill="#1f3469" d="M 769.5,237.5 C 769.5,241.167 769.5,244.833 769.5,248.5C 742.167,248.5 714.833,248.5 687.5,248.5C 687.5,244.833 687.5,241.167 687.5,237.5C 714.833,237.5 742.167,237.5 769.5,237.5 Z"/></g>
<g><path style="opacity:0.956" fill="#fdc10f" d="M 33.5,271.5 C 54.7223,269.977 63.5557,279.644 60,300.5C 54.243,311.981 45.0763,316.148 32.5,313C 19.1494,306.148 15.316,295.648 21,281.5C 24.1908,276.837 28.3575,273.503 33.5,271.5 Z"/></g>
<g><path style="opacity:0.962" fill="#fdc10f" d="M 721.5,271.5 C 741.981,269.814 751.148,279.148 749,299.5C 741.344,314.165 730.177,317.665 715.5,310C 706.133,300.969 704.633,290.802 711,279.5C 713.94,275.963 717.44,273.297 721.5,271.5 Z"/></g>
<g><path style="opacity:0.907" fill="#1f3469" d="M -0.5,327.5 C 26.5,327.5 53.5,327.5 80.5,327.5C 80.5,331.167 80.5,334.833 80.5,338.5C 53.5,338.5 26.5,338.5 -0.5,338.5C -0.5,334.833 -0.5,331.167 -0.5,327.5 Z"/></g>
<g><path style="opacity:0.893" fill="#1f3469" d="M 769.5,327.5 C 769.5,331.167 769.5,334.833 769.5,338.5C 742.167,338.5 714.833,338.5 687.5,338.5C 687.5,334.833 687.5,331.167 687.5,327.5C 714.833,327.5 742.167,327.5 769.5,327.5 Z"/></g>
<g><path style="opacity:0.961" fill="#1f3469" d="M 442.5,329.5 C 444.722,329.178 446.556,329.845 448,331.5C 454.375,341.751 460.875,351.918 467.5,362C 461.489,366.342 454.822,369.342 447.5,371C 433.743,374.793 419.743,376.96 405.5,377.5C 405.907,366.138 406.74,354.805 408,343.5C 409.938,340.894 412.438,339.061 415.5,338C 424.666,335.299 433.666,332.466 442.5,329.5 Z"/></g>
<g><path style="opacity:0.953" fill="#fdc10f" d="M 35.5,351.5 C 53.3115,351.144 61.8115,359.811 61,377.5C 57.073,390.72 48.2397,396.22 34.5,394C 18.8985,387.203 14.7319,376.036 22,360.5C 25.5282,355.834 30.0282,352.834 35.5,351.5 Z"/></g>
<g><path style="opacity:0.957" fill="#fdc10f" d="M 723.5,351.5 C 743.018,350.85 751.518,360.183 749,379.5C 744.377,390.901 735.877,395.734 723.5,394C 713.12,390.946 707.453,383.946 706.5,373C 707.553,362.009 713.219,354.842 723.5,351.5 Z"/></g>
</svg>
