<?xml version="1.0" standalone="no"?>
<!DOCTYPE svg PUBLIC "-//W3C//DTD SVG 20010904//EN"
 "http://www.w3.org/TR/2001/REC-SVG-20010904/DTD/svg10.dtd">
<svg version="1.0" xmlns="http://www.w3.org/2000/svg"
 width="770.000000pt" height="533.000000pt" viewBox="0 0 770.000000 533.000000"
 preserveAspectRatio="xMidYMid meet">

<g transform="translate(0.000000,533.000000) scale(0.100000,-0.100000)"
fill="#000000" stroke="none">
<path d="M3040 4389 c-157 -3 -333 -7 -392 -8 l-108 -1 0 -189 c0 -188 0 -189
23 -192 12 -2 173 -1 357 2 622 12 1055 10 1190 -6 158 -18 334 -62 434 -109
355 -164 606 -581 582 -971 -3 -55 -12 -125 -21 -155 -26 -94 -23 -101 93
-295 59 -98 112 -179 117 -179 16 -1 91 150 124 249 103 311 93 634 -30 950
-174 448 -581 777 -1081 874 -208 40 -543 48 -1288 30z"/>
<path d="M3445 3781 c-16 -4 -39 -12 -50 -18 -12 -7 -137 -237 -314 -580 -581
-1120 -760 -1461 -885 -1687 -70 -126 -126 -230 -124 -231 2 -2 91 -5 199 -7
160 -2 199 0 213 12 10 8 138 258 286 556 210 425 273 546 296 560 26 18 65
19 661 24 l633 5 -104 176 c-83 140 -111 179 -135 189 -24 9 -100 10 -360 2
-181 -6 -340 -8 -353 -5 -41 10 -60 34 -55 70 3 17 72 159 153 315 81 156 154
297 163 313 8 17 15 53 15 82 0 66 -54 178 -99 204 -37 22 -99 31 -140 20z"/>
<path d="M3896 3633 c76 -146 142 -261 454 -798 239 -411 376 -652 620 -1090
122 -220 233 -417 246 -437 l24 -38 205 0 c113 0 205 2 205 4 0 3 -58 101
-128 218 -71 117 -394 670 -718 1228 -324 558 -599 1025 -611 1038 -21 21 -29
22 -198 22 l-177 0 78 -147z"/>
<path d="M0 2890 l0 -50 403 2 402 3 3 48 3 47 -405 0 -406 0 0 -50z"/>
<path d="M6890 2890 l0 -50 400 0 400 0 0 50 0 50 -400 0 -400 0 0 -50z"/>
<path d="M0 2000 l0 -50 406 0 405 0 -3 48 -3 47 -402 3 -403 2 0 -50z"/>
<path d="M6890 2000 l0 -50 400 0 400 0 0 50 0 50 -400 0 -400 0 0 -50z"/>
<path d="M4305 1984 c-178 -54 -202 -67 -215 -114 -10 -37 -25 -288 -19 -305
8 -20 219 8 386 51 97 25 196 65 207 83 6 9 -196 332 -206 330 -2 0 -70 -20
-153 -45z"/>
</g>
</svg>
